# xmcd
#
# Track frame offsets:
#	150
#	31054
#	87015
#	121047
#	165403
#	208832
#	257723
#
# Disc length: 4618 seconds
#
# Revision: 13
# Processed by: cddbd v1.5.2PL0 Copyright (c) Steve Scherf et al.
# Submitted via: Jack! The Knife 20 Magnifico
#
DISCID=4c120807
DTITLE=Deep Purple - Made In Japan
DYEAR=1972
DGENRE=Hard Rock
TTITLE0=Highway Star
TTITLE1=Child In Time
TTITLE2=Smoke On The Water
TTITLE3=The Mule
TTITLE4=Strange Kind Of Woman
TTITLE5=Lazy
TTITLE6=Space Truckin'
EXTD=Deep Purple
EXTT0=Blackmore, Gillan, Glover, Lord, Paice
EXTT1=Blackmore, Gillan, Glover, Lord, Paice
EXTT2=Blackmore, Gillan, Glover, Lord, Paice
EXTT3=Blackmore, Gillan, Glover, Lord, Paice
EXTT4=Blackmore, Gillan, Glover, Lord, Paice
EXTT5=Blackmore, Gillan, Glover, Lord, Paice
EXTT6=Blackmore, Gillan, Glover, Lord, Paice
PLAYORDER=
